<svg width="109" height="104" viewBox="0 0 109 104" fill="none" xmlns="http://www.w3.org/2000/svg">
<rect width="109" height="104" rx="10" fill="#F4960D"/>
<path d="M59.4278 55.512L47.8465 68.7467C47.3459 69.3186 46.7289 69.777 46.0367 70.091C45.3446 70.4051 44.5933 70.5675 43.8332 70.5675C43.0731 70.5675 42.3218 70.4051 41.6296 70.091C40.9375 69.777 40.3204 69.3186 39.8198 68.7467L28.2385 55.512C27.3878 54.5398 26.9189 53.2918 26.9189 52C26.9189 50.7082 27.3878 49.4602 28.2385 48.488L39.8198 35.2533C40.3204 34.6814 40.9375 34.223 41.6296 33.909C42.3218 33.595 43.0731 33.4325 43.8332 33.4325C44.5933 33.4325 45.3446 33.595 46.0367 33.909C46.7289 34.223 47.3459 34.6814 47.8465 35.2533L59.4278 48.488C60.2785 49.4602 60.7474 50.7082 60.7474 52C60.7474 53.2918 60.2785 54.5398 59.4278 55.512Z" stroke="#1A1A1A" stroke-width="2.66667" stroke-linecap="round" stroke-linejoin="round"/>
<path d="M57.1665 70.6667L70.1905 55.472C71.0196 54.5052 71.4754 53.2736 71.4754 52C71.4754 50.7264 71.0196 49.4948 70.1905 48.528L57.1665 33.3333" stroke="#1A1A1A" stroke-width="2.66667" stroke-linecap="round" stroke-linejoin="round"/>
<path d="M67.833 70.6667L80.857 55.472C81.6861 54.5052 82.1419 53.2736 82.1419 52C82.1419 50.7264 81.6861 49.4948 80.857 48.528L67.833 33.3333" stroke="#1A1A1A" stroke-width="2.66667" stroke-linecap="round" stroke-linejoin="round"/>
</svg>
